HIERARCHY
ROOT Hips
{
  OFFSET 50.5095 94.3556 14.9279
  CHANNELS 6 Xposition Yposition Zposition Zrotation Xrotation Yrotation
  JOINT spine
  {
    OFFSET 0 7.80059 0.448573
    CHANNELS 3 Zrotation Xrotation Yrotation
    JOINT spine1
    {
      OFFSET 0 10.1364 0
      CHANNELS 3 Zrotation Xrotation Yrotation
      JOINT spine2
      {
        OFFSET 0 9.71251 0
        CHANNELS 3 Zrotation Xrotation Yrotation
        JOINT Neck
        {
          OFFSET 0 24.9361 1.18887
          CHANNELS 3 Zrotation Xrotation Yrotation
          JOINT Head
          {
            OFFSET 0 7.53384 0
            CHANNELS 3 Zrotation Xrotation Yrotation
            End Site
            {
              OFFSET 0 18.2361 -6.01402
            }
          }
        }
        JOINT RightShoulder
        {
          OFFSET -4.08965 10.4888 -0.569457
          CHANNELS 3 Zrotation Xrotation Yrotation
          JOINT RightArm
          {
            OFFSET 0 13.757 0
            CHANNELS 3 Zrotation Xrotation Yrotation
            JOINT RightArmRoll
            {
              OFFSET 0 6.94478 0
              CHANNELS 3 Zrotation Xrotation Yrotation
              JOINT RightForeArm
              {
                OFFSET 0 20.2277 0
                CHANNELS 3 Zrotation Xrotation Yrotation
                JOINT RightForeArmRoll
                {
                  OFFSET 0 7.79312 0
                  CHANNELS 3 Zrotation Xrotation Yrotation
                  JOINT RightHand
                  {
                    OFFSET 0 15.6391 0
                    CHANNELS 3 Zrotation Xrotation Yrotation
                    End Site
                    {
                      OFFSET 0 0 0
                    }
                  }
                }
              }
            }
          }
        }
        JOINT LeftShoulder
        {
          OFFSET 4.08965 10.4888 -0.569457
          CHANNELS 3 Zrotation Xrotation Yrotation
          JOINT LeftArm
          {
            OFFSET 0 13.757 0
            CHANNELS 3 Zrotation Xrotation Yrotation
            JOINT LeftArmRoll
            {
              OFFSET 0 6.94478 0
              CHANNELS 3 Zrotation Xrotation Yrotation
              JOINT LeftForeArm
              {
                OFFSET 0 20.2277 0
                CHANNELS 3 Zrotation Xrotation Yrotation
                JOINT LeftForeArmRoll
                {
                  OFFSET 0 7.79312 0
                  CHANNELS 3 Zrotation Xrotation Yrotation
                  JOINT LeftHand
                  {
                    OFFSET 0 15.6391 0
                    CHANNELS 3 Zrotation Xrotation Yrotation
                    End Site
                    {
                      OFFSET 0 0 0
                    }
                  }
                }
              }
            }
          }
        }
      }
    }
  }
  JOINT RightUpLeg
  {
    OFFSET -6.91416 -1.26788 -1.06358
    CHANNELS 3 Zrotation Xrotation Yrotation
    JOINT RightUpLegRoll
    {
      OFFSET 0 18.3378 0
      CHANNELS 3 Zrotation Xrotation Yrotation
      JOINT RightLeg
      {
        OFFSET 0 -22.7085 0
        CHANNELS 3 Zrotation Xrotation Yrotation
        JOINT RightLegRoll
        {
          OFFSET 0 22.7828 0
          CHANNELS 3 Zrotation Xrotation Yrotation
          JOINT RightFoot
          {
            OFFSET 0 18.9629 0
            CHANNELS 3 Zrotation Xrotation Yrotation
            JOINT RightToeBase
            {
              OFFSET 0 15.852 0
              CHANNELS 3 Zrotation Xrotation Yrotation
              End Site
              {
                OFFSET 0.00671906 7.67701 -0.884893
              }
            }
          }
        }
      }
    }
  }
  JOINT LeftUpLeg
  {
    OFFSET 6.91416 -1.26788 -1.06358
    CHANNELS 3 Zrotation Xrotation Yrotation
    JOINT LeftUpLegRoll
    {
      OFFSET 0 18.3379 0
      CHANNELS 3 Zrotation Xrotation Yrotation
      JOINT LeftLeg
      {
        OFFSET 0 22.7084 0
        CHANNELS 3 Zrotation Xrotation Yrotation
        JOINT LeftLegRoll
        {
          OFFSET 0 22.9934 0
          CHANNELS 3 Zrotation Xrotation Yrotation
          JOINT LeftFoot
          {
            OFFSET 0 18.7522 0
            CHANNELS 3 Zrotation Xrotation Yrotation
            JOINT LeftToeBase
            {
              OFFSET 0 15.852 0
              CHANNELS 3 Zrotation Xrotation Yrotation
              End Site
              {
                OFFSET -0.030112 7.677 -0.884893
              }
            }
          }
        }
      }
    }
  }
}
MOTION
Frames: 8
Frame Time: 0.00208333
51.4949 94.2949 12.4241 -0.58539 -5.45902 3.31079 -0.159047 -0.328133 0.31466 -0.316841 3.37378 0.653323 -0.325102 5.01879 0.659358 -0.807418 11.9644 -3.30034 5.10568 -14.4926 -2.34094 80.8836 -4.39271 -4.15808 93.9463 5.35386 11.0398 1.79418e-006 -6.15824e-007 9.03361e-007 12.4704 34.4352 -5.50072 -5.45525e-006 3.0624e-006 -3 8.02893 -4.95126 0.697607 -67.0752 4.14485 -1.13917 -103.553 6.07518 -4.72276 5.76476e-015 -7.95139e-016 -7.95139e-016 -9.72862 26.3047 3.9335 1.27137e-005 -3.65466e-006 3 -8.02908 -4.95164 -0.697755 178.375 -1.01638 -0.175939 180 7.01561e-015 178.985 178.585 8.18672 179.581 6.58399e-007 -4.47814e-006 0.0441909 -16.6329 68.0492 19.5603 8.13649 25.2327 -3.48774 -179.809 -0.174898 6.56947 4.54188e-006 -4.6773e-006 -1.40127 -4.65114 -12.6144 -0.285517 -8.95488e-007 -4.00096e-006 -0.299892 25.6482 71.9259 -23.9015 -8.13649 25.2327 3.48773 
51.4857 94.2931 12.4179 -0.597196 -5.45053 3.31873 -0.159594 -0.329732 0.312327 -0.318107 3.36855 0.648339 -0.326311 5.01357 0.654384 -0.796259 11.9737 -3.30105 5.08606 -14.4879 -2.34264 80.9028 -4.3915 -4.15875 93.9233 5.42886 11.1555 1.79418e-006 -6.15824e-007 9.03361e-007 12.418 34.2479 -5.45986 -5.45525e-006 3.0624e-006 -3 8.02893 -4.95126 0.697607 -67.0837 4.16288 -1.14709 -103.568 6.10423 -4.68573 -3.13086e-015 -7.95139e-016 7.95139e-016 -9.73336 26.3194 3.93571 1.27137e-005 -3.65466e-006 3 -8.02908 -4.95164 -0.697755 178.394 -1.02073 -0.189155 180 7.01561e-015 178.985 178.589 8.16611 179.581 6.58399e-007 -4.47814e-006 0.0441914 -16.6309 68.0437 19.556 8.13649 25.2327 -3.48774 -179.794 -0.165764 6.56134 4.54188e-006 -4.6773e-006 -1.40121 -4.64975 -12.6199 -0.285305 -8.95488e-007 -4.00096e-006 -0.300456 25.6629 71.9334 -23.9114 -8.13649 25.2327 3.48773 
51.486 94.2991 12.4266 -0.609194 -5.44166 3.32705 -0.160136 -0.331343 0.30988 -0.319367 3.36323 0.643081 -0.32751 5.00825 0.649136 -0.783816 11.9828 -3.30157 5.06453 -14.4825 -2.34425 80.9227 -4.39025 -4.15944 93.9005 5.50448 11.2697 1.79418e-006 -6.15824e-007 9.03361e-007 12.3667 34.0616 -5.41956 -5.45525e-006 3.0624e-006 -3 8.02893 -4.95126 0.697607 -67.0923 4.18137 -1.15524 -103.583 6.13329 -4.64881 5.31749e-015 1.19271e-015 7.95139e-016 -9.73782 26.335 3.93793 1.27137e-005 -3.65466e-006 3 -8.02908 -4.95164 -0.697755 178.414 -1.0247 -0.202823 180 7.01561e-015 178.985 178.593 8.14528 179.581 6.58399e-007 -4.47814e-006 0.0441922 -16.6287 68.0381 19.5516 8.13649 25.2327 -3.48774 -179.779 -0.156189 6.55295 4.54188e-006 -4.6773e-006 -1.40112 -4.64842 -12.6255 -0.285085 -8.95488e-007 -4.00096e-006 -0.301021 25.6776 71.9409 -23.9214 -8.13649 25.2327 3.48773 
51.4802 94.3007 12.433 -0.621328 -5.43251 3.33564 -0.160675 -0.332961 0.307353 -0.320623 3.35785 0.637631 -0.328703 5.00287 0.643696 -0.770473 11.9916 -3.30196 5.04166 -14.4767 -2.3458 80.943 -4.38896 -4.16014 93.8776 5.58051 11.383 1.79418e-006 -6.15824e-007 9.03361e-007 12.3165 33.8759 -5.37972 -5.45525e-006 3.0624e-006 -3 8.02893 -4.95126 0.697607 -67.101 4.20018 -1.16355 -103.598 6.16237 -4.61198 1.98785e-016 -3.97569e-016 7.95139e-016 -9.74209 26.3512 3.94016 1.27137e-005 -3.65466e-006 3 -8.02908 -4.95164 -0.697755 178.434 -1.0284 -0.216809 180 7.01561e-015 178.985 178.598 8.12431 179.58 6.58399e-007 -4.47814e-006 0.0441931 -16.6264 68.0323 19.5471 8.13649 25.2327 -3.48774 -179.763 -0.146303 6.54438 4.54188e-006 -4.6773e-006 -1.40101 -4.64712 -12.6311 -0.284859 -8.95488e-007 -4.00096e-006 -0.301588 25.6924 71.9483 -23.9313 -8.13649 25.2327 3.48773 
51.4799 94.2949 12.4392 -0.633542 -5.42321 3.34439 -0.161214 -0.334583 0.304781 -0.321877 3.35242 0.632073 -0.329892 4.99744 0.638147 -0.756616 12.0004 -3.30226 5.01802 -14.4705 -2.34731 80.9635 -4.38765 -4.16084 93.8546 5.65673 11.4958 1.79418e-006 -6.15824e-007 9.03361e-007 12.2669 33.6906 -5.34023 -5.45525e-006 3.0624e-006 -3 8.02893 -4.95126 0.697607 -67.1096 4.21919 -1.17196 -103.613 6.19146 -4.5752 -1.22253e-014 -1.19271e-015 -1.59028e-015 -9.74624 26.3678 3.94239 1.27137e-005 -3.65466e-006 3 -8.02908 -4.95164 -0.697755 178.454 -1.03196 -0.230976 180 7.01561e-015 178.985 178.602 8.10327 179.58 6.58399e-007 -4.47814e-006 0.0441942 -16.624 68.0265 19.5426 8.13649 25.2327 -3.48774 -179.747 -0.136241 6.5357 4.54188e-006 -4.6773e-006 -1.40089 -4.64583 -12.6366 -0.28463 -8.95488e-007 -4.00096e-006 -0.302156 25.7073 71.9557 -23.9412 -8.13649 25.2327 3.48773 
51.4778 94.2947 12.4471 -0.645777 -5.41387 3.35317 -0.161752 -0.336207 0.302198 -0.323131 3.34699 0.626487 -0.331081 4.99201 0.632571 -0.74263 12.0091 -3.30256 4.9942 -14.4644 -2.34881 80.9841 -4.38633 -4.16155 93.8314 5.73294 11.6086 1.79418e-006 -6.15824e-007 9.03361e-007 12.2176 33.5054 -5.30101 -5.45525e-006 3.0624e-006 -3 8.02893 -4.95126 0.697607 -67.1183 4.23824 -1.18039 -103.628 6.22055 -4.53842 -1.89342e-014 -1.19271e-015 -1.59028e-015 -9.75037 26.3844 3.94462 1.27137e-005 -3.65466e-006 3 -8.02908 -4.95164 -0.697755 178.474 -1.03548 -0.245189 180 7.01561e-015 178.985 178.606 8.0822 179.579 6.58399e-007 -4.47814e-006 0.0441953 -16.6216 68.0207 19.5381 8.13649 25.2327 -3.48774 -179.731 -0.126134 6.527 4.54188e-006 -4.6773e-006 -1.40077 -4.64456 -12.6422 -0.2844 -8.95488e-007 -4.00096e-006 -0.302723 25.7221 71.9631 -23.9512 -8.13649 25.2327 3.48773 
51.4729 94.2928 12.4383 -0.657977 -5.40461 3.36187 -0.16229 -0.337828 0.299637 -0.324387 3.34157 0.620956 -0.332274 4.9866 0.62705 -0.728901 12.0178 -3.30288 4.97075 -14.4583 -2.35033 81.0045 -4.38503 -4.16225 93.8078 5.80892 11.7216 1.79418e-006 -6.15824e-007 9.03361e-007 12.1686 33.32 -5.26194 -5.45525e-006 3.0624e-006 -3 8.02893 -4.95126 0.697607 -67.1269 4.2572 -1.18877 -103.643 6.24964 -4.50162 1.49089e-016 0 -7.95139e-016 -9.75456 26.4009 3.94685 1.27137e-005 -3.65466e-006 3 -8.02908 -4.95164 -0.697755 178.494 -1.03907 -0.25931 180 7.01561e-015 178.985 178.611 8.06116 179.579 6.58399e-007 -4.47814e-006 0.0441963 -16.6192 68.0149 19.5336 8.13649 25.2327 -3.48774 -179.715 -0.116115 6.51835 4.54188e-006 -4.6773e-006 -1.40066 -4.64327 -12.6478 -0.284171 -8.95488e-007 -4.00096e-006 -0.303291 25.737 71.9706 -23.9612 -8.13649 25.2327 3.48773 
51.4664 94.294 12.4471 -0.670084 -5.39554 3.37039 -0.162831 -0.339444 0.297134 -0.325648 3.33621 0.615562 -0.333473 4.98123 0.621665 -0.715814 12.0267 -3.30331 4.94826 -14.4526 -2.3519 81.0247 -4.38375 -4.16295 93.7836 5.88447 11.8354 1.79418e-006 -6.15824e-007 9.03361e-007 12.1193 33.134 -5.22294 -5.45525e-006 3.0624e-006 -3 8.02893 -4.95126 0.697607 -67.1355 4.27592 -1.19704 -103.658 6.27871 -4.46475 -1.37161e-014 -1.19271e-015 -2.38542e-015 -9.75888 26.4169 3.94908 1.27137e-005 -3.65466e-006 3 -8.02908 -4.95164 -0.697755 178.514 -1.04285 -0.273206 180 7.01561e-015 178.985 178.615 8.04024 179.578 6.58399e-007 -4.47814e-006 0.0441972 -16.6169 68.0092 19.5292 8.13649 25.2327 -3.48774 -179.7 -0.106316 6.50983 4.54188e-006 -4.6773e-006 -1.40056 -4.64196 -12.6533 -0.283947 -8.95488e-007 -4.00096e-006 -0.303857 25.7518 71.978 -23.9711 -8.13649 25.2327 3.48773 
